<svg width="39" height="40" viewBox="0 0 39 40" fill="none" xmlns="http://www.w3.org/2000/svg">
<path d="M14.7728 4.41177C9.06166 4.41177 4.43188 9.02059 4.43188 14.7059C4.43188 20.3912 9.06166 25 14.7728 25C17.197 25.0038 19.5448 24.156 21.4028 22.6059L29.4465 30.6132C29.5323 30.6986 29.6341 30.7663 29.7461 30.8125C29.8582 30.8587 29.9782 30.8825 30.0995 30.8825C30.2208 30.8825 30.3408 30.8587 30.4529 30.8125C30.5649 30.7663 30.6667 30.6986 30.7525 30.6132C30.8382 30.5279 30.9062 30.4265 30.9526 30.315C30.999 30.2035 31.0229 30.084 31.0229 29.9632C31.0229 29.8425 30.999 29.723 30.9526 29.6115C30.9062 29.4999 30.8382 29.3986 30.7525 29.3132L22.7087 21.3059C24.2656 19.4562 25.1173 17.1191 25.1137 14.7059C25.1137 9.02059 20.4839 4.41177 14.7728 4.41177ZM6.27848 14.7059C6.27848 10.036 10.0817 6.25 14.7728 6.25C19.4639 6.25 23.2671 10.036 23.2671 14.7059C23.2671 19.3757 19.4639 23.1618 14.7728 23.1618C10.0817 23.1618 6.27848 19.3757 6.27848 14.7059Z" fill="#47437C" fill-opacity="0.63"/>
</svg>
